HIERARCHY
ROOT Hips
{
	OFFSET 0.000000 100.481300 0.000000
	CHANNELS 6 Xposition Yposition Zposition Xrotation Yrotation Zrotation
	JOINT Spine
	{
		OFFSET -0.279200 12.230698 -2.892100
		CHANNELS 3 Xrotation Yrotation Zrotation
		JOINT Spine1
		{
			OFFSET -0.325700 14.269203 -3.374200
			CHANNELS 3 Xrotation Yrotation Zrotation
			JOINT Spine2
			{
				OFFSET -0.372300 16.307602 -0.352600
				CHANNELS 3 Xrotation Yrotation Zrotation
				JOINT Neck
				{
					OFFSET -0.418800 17.814194 8.416900
					CHANNELS 3 Xrotation Yrotation Zrotation
					JOINT Head
					{
						OFFSET 0.000000 7.031097 3.806800
						CHANNELS 3 Xrotation Yrotation Zrotation
						JOINT HeadTop_End
						{
							OFFSET 0.000000 24.646606 12.978600
							CHANNELS 3 Xrotation Yrotation Zrotation
							End Site
							{
								OFFSET 0.000000 27.854965 0.000000
							}
						}
					}
				}
				JOINT LeftShoulder
				{
					OFFSET 16.952999 14.495407 -7.737500
					CHANNELS 3 Xrotation Yrotation Zrotation
					JOINT LeftArm
					{
						OFFSET 9.308998 -2.777710 0.208600
						CHANNELS 3 Xrotation Yrotation Zrotation
						JOINT LeftForeArm
						{
							OFFSET 29.972298 0.000000 0.000000
							CHANNELS 3 Xrotation Yrotation Zrotation
							JOINT LeftHand
							{
								OFFSET 26.026505 0.000000 0.000000
								CHANNELS 3 Xrotation Yrotation Zrotation
								JOINT LeftHandThumb1
								{
									OFFSET 12.240501 -7.147949 9.207150
									CHANNELS 3 Xrotation Yrotation Zrotation
									JOINT LeftHandThumb2
									{
										OFFSET 4.138618 -2.389435 2.389433
										CHANNELS 3 Xrotation Yrotation Zrotation
										JOINT LeftHandThumb3
										{
											OFFSET 2.726913 -1.574387 1.574386
											CHANNELS 3 Xrotation Yrotation Zrotation
											JOINT LeftHandThumb4
											{
												OFFSET 3.941010 -2.275345 2.275342
												CHANNELS 3 Xrotation Yrotation Zrotation
												End Site
												{
													OFFSET -0.005798 5.087799 0.009903
												}
											}
										}
									}
								}
								JOINT LeftHandIndex1
								{
									OFFSET 24.424698 -1.985611 5.953459
									CHANNELS 3 Xrotation Yrotation Zrotation
									JOINT LeftHandIndex2
									{
										OFFSET 6.426697 0.000000 0.000000
										CHANNELS 3 Xrotation Yrotation Zrotation
										JOINT LeftHandIndex3
										{
											OFFSET 5.337898 0.000000 0.000000
											CHANNELS 3 Xrotation Yrotation Zrotation
											JOINT LeftHandIndex4
											{
												OFFSET 4.409401 0.000000 0.000000
												CHANNELS 3 Xrotation Yrotation Zrotation
												End Site
												{
													OFFSET 0.000000 4.409363 0.014373
												}
											}
										}
									}
								}
								JOINT LeftHandMiddle1
								{
									OFFSET 23.810104 0.000000 0.000000
									CHANNELS 3 Xrotation Yrotation Zrotation
									JOINT LeftHandMiddle2
									{
										OFFSET 7.176498 0.000000 0.000000
										CHANNELS 3 Xrotation Yrotation Zrotation
										JOINT LeftHandMiddle3
										{
											OFFSET 6.774902 0.000000 0.000000
											CHANNELS 3 Xrotation Yrotation Zrotation
											JOINT LeftHandMiddle4
											{
												OFFSET 5.403328 0.000000 0.000000
												CHANNELS 3 Xrotation Yrotation Zrotation
												End Site
												{
													OFFSET -0.027702 5.403244 0.017414
												}
											}
										}
									}
								}
								JOINT LeftHandRing1
								{
									OFFSET 22.908401 -0.839279 -6.020567
									CHANNELS 3 Xrotation Yrotation Zrotation
									JOINT LeftHandRing2
									{
										OFFSET 6.337502 0.000000 0.000000
										CHANNELS 3 Xrotation Yrotation Zrotation
										JOINT LeftHandRing3
										{
											OFFSET 5.779297 0.000000 0.000000
											CHANNELS 3 Xrotation Yrotation Zrotation
											JOINT LeftHandRing4
											{
												OFFSET 4.965698 0.000000 0.000000
												CHANNELS 3 Xrotation Yrotation Zrotation
												End Site
												{
													OFFSET 0.000000 4.965668 0.016186
												}
											}
										}
									}
								}
								JOINT LeftHandPinky1
								{
									OFFSET 20.037003 -1.530319 -10.950146
									CHANNELS 3 Xrotation Yrotation Zrotation
									JOINT LeftHandPinky2
									{
										OFFSET 5.254700 0.000000 0.000000
										CHANNELS 3 Xrotation Yrotation Zrotation
										JOINT LeftHandPinky3
										{
											OFFSET 4.810204 0.000000 0.000000
											CHANNELS 3 Xrotation Yrotation Zrotation
											JOINT LeftHandPinky4
											{
												OFFSET 3.647202 0.000000 0.000000
												CHANNELS 3 Xrotation Yrotation Zrotation
												End Site
												{
													OFFSET 0.000000 3.647186 0.011889
												}
											}
										}
									}
								}
							}
						}
					}
				}
				JOINT RightShoulder
				{
					OFFSET -15.141001 14.495407 -7.737500
					CHANNELS 3 Xrotation Yrotation Zrotation
					JOINT RightArm
					{
						OFFSET -9.308998 -2.777710 0.208500
						CHANNELS 3 Xrotation Yrotation Zrotation
						JOINT RightForeArm
						{
							OFFSET -29.972300 0.000000 0.000000
							CHANNELS 3 Xrotation Yrotation Zrotation
							JOINT RightHand
							{
								OFFSET -26.026505 0.000000 0.000000
								CHANNELS 3 Xrotation Yrotation Zrotation
								JOINT RightHandThumb1
								{
									OFFSET -12.240601 -7.148026 9.207092
									CHANNELS 3 Xrotation Yrotation Zrotation
									JOINT RightHandThumb2
									{
										OFFSET -4.138618 -2.389435 2.389433
										CHANNELS 3 Xrotation Yrotation Zrotation
										JOINT RightHandThumb3
										{
											OFFSET -2.726974 -1.574417 1.574421
											CHANNELS 3 Xrotation Yrotation Zrotation
											JOINT RightHandThumb4
											{
												OFFSET -3.941010 -2.275345 2.275343
												CHANNELS 3 Xrotation Yrotation Zrotation
												End Site
												{
													OFFSET 0.005814 5.087799 0.009927
												}
											}
										}
									}
								}
								JOINT RightHandIndex1
								{
									OFFSET -24.424698 -1.985657 5.953444
									CHANNELS 3 Xrotation Yrotation Zrotation
									JOINT RightHandIndex2
									{
										OFFSET -6.426697 0.000000 0.000000
										CHANNELS 3 Xrotation Yrotation Zrotation
										JOINT RightHandIndex3
										{
											OFFSET -5.337898 0.000000 0.000000
											CHANNELS 3 Xrotation Yrotation Zrotation
											JOINT RightHandIndex4
											{
												OFFSET -4.409401 0.000000 0.000000
												CHANNELS 3 Xrotation Yrotation Zrotation
												End Site
												{
													OFFSET 0.000000 4.409363 0.014408
												}
											}
										}
									}
								}
								JOINT RightHandMiddle1
								{
									OFFSET -23.810097 0.000000 0.000000
									CHANNELS 3 Xrotation Yrotation Zrotation
									JOINT RightHandMiddle2
									{
										OFFSET -7.176498 0.000000 0.000000
										CHANNELS 3 Xrotation Yrotation Zrotation
										JOINT RightHandMiddle3
										{
											OFFSET -6.774902 0.000000 0.000000
											CHANNELS 3 Xrotation Yrotation Zrotation
											JOINT RightHandMiddle4
											{
												OFFSET -5.403328 0.000000 0.000000
												CHANNELS 3 Xrotation Yrotation Zrotation
												End Site
												{
													OFFSET 0.027702 5.403244 0.017457
												}
											}
										}
									}
								}
								JOINT RightHandRing1
								{
									OFFSET -22.908302 -0.839325 -6.020576
									CHANNELS 3 Xrotation Yrotation Zrotation
									JOINT RightHandRing2
									{
										OFFSET -6.337502 0.000000 0.000000
										CHANNELS 3 Xrotation Yrotation Zrotation
										JOINT RightHandRing3
										{
											OFFSET -5.779297 0.000000 0.000000
											CHANNELS 3 Xrotation Yrotation Zrotation
											JOINT RightHandRing4
											{
												OFFSET -4.965698 0.000000 0.000000
												CHANNELS 3 Xrotation Yrotation Zrotation
												End Site
												{
													OFFSET 0.000000 4.965668 0.016226
												}
											}
										}
									}
								}
								JOINT RightHandPinky1
								{
									OFFSET -20.037003 -1.530334 -10.950259
									CHANNELS 3 Xrotation Yrotation Zrotation
									JOINT RightHandPinky2
									{
										OFFSET -5.254700 0.000000 0.000000
										CHANNELS 3 Xrotation Yrotation Zrotation
										JOINT RightHandPinky3
										{
											OFFSET -4.810204 0.000000 0.000000
											CHANNELS 3 Xrotation Yrotation Zrotation
											JOINT RightHandPinky4
											{
												OFFSET -3.647202 0.000000 0.000000
												CHANNELS 3 Xrotation Yrotation Zrotation
												End Site
												{
													OFFSET 0.000000 3.647186 0.011917
												}
											}
										}
									}
								}
							}
						}
					}
				}
			}
		}
	}
	JOINT LeftUpLeg
	{
		OFFSET 15.427100 -6.655098 0.678600
		CHANNELS 3 Xrotation Yrotation Zrotation
		JOINT LeftLeg
		{
			OFFSET 4.081073 -39.591068 13.024000
			CHANNELS 3 Xrotation Yrotation Zrotation
			JOINT LeftFoot
			{
				OFFSET -4.081074 -37.707932 -15.979700
				CHANNELS 3 Xrotation Yrotation Zrotation
				JOINT LeftToeBase
				{
					OFFSET 5.346399 -15.068900 20.645000
					CHANNELS 3 Xrotation Yrotation Zrotation
					JOINT LeftToe_End
					{
						OFFSET 2.754700 0.931300 11.300900
						CHANNELS 3 Xrotation Yrotation Zrotation
						End Site
						{
							OFFSET 0.000000 11.669021 0.000000
						}
					}
				}
			}
		}
	}
	JOINT RightUpLeg
	{
		OFFSET -15.569500 -6.655098 0.678600
		CHANNELS 3 Xrotation Yrotation Zrotation
		JOINT RightLeg
		{
			OFFSET -4.081825 -39.591045 13.023800
			CHANNELS 3 Xrotation Yrotation Zrotation
			JOINT RightFoot
			{
				OFFSET 4.081824 -37.707954 -15.979600
				CHANNELS 3 Xrotation Yrotation Zrotation
				JOINT RightToeBase
				{
					OFFSET -5.346400 -15.068900 20.645000
					CHANNELS 3 Xrotation Yrotation Zrotation
					JOINT RightToe_End
					{
						OFFSET -2.754700 0.931300 11.300900
						CHANNELS 3 Xrotation Yrotation Zrotation
						End Site
						{
							OFFSET 0.000000 11.669021 0.000000
						}
					}
				}
			}
		}
	}
}
MOTION
Frames: 4
Frame Time: 0.033333
1.490798 90.121857 -1.785313 -17.065535 -39.167973 -8.657757 7.975253 0.090812 -0.904867 16.406999 -0.141658 -0.725905 16.407176 -0.201207 -0.703058 0.364901 7.465941 0.833275 -6.963655 21.505057 11.919545 -0.000001 -0.000001 -0.000000 -37.569855 -4.824459 1.539404 -41.560687 -6.899358 -61.783924 0.000076 -64.883621 0.000060 -113.377568 8.581803 33.281473 4.707075 9.563262 3.113491 19.473201 -1.474898 7.636931 -4.536184 -9.613108 1.492960 -0.000000 -0.000000 0.000000 -0.042360 4.184129 -37.095246 3.039654 5.133432 -61.240296 0.513425 2.400260 -24.144280 0.000002 0.000002 -0.000001 0.709353 5.747863 -52.634151 3.387942 5.308996 -65.066124 0.281649 1.796298 -17.820641 0.000002 0.000001 0.000000 0.310024 5.956400 -61.184725 4.056107 5.569870 -72.106000 0.582272 2.548142 -25.739010 0.000001 0.000003 0.000003 -6.155942 4.714542 -72.614022 3.296786 5.265841 -64.076805 0.175344 1.424015 -14.038889 -0.000000 -0.000002 -0.000001 -41.189002 -8.601355 -9.971221 -46.673869 58.262893 100.934275 0.000068 98.473685 -0.000050 -52.371217 -17.229557 -29.260285 8.370041 -4.791301 11.012287 21.488501 -18.315443 -18.287256 -0.735891 -49.824823 -32.567869 -0.000001 0.000000 -0.000000 -0.906239 1.692131 12.261996 0.753957 -2.542496 33.030590 0.617535 -2.319413 29.815091 0.000000 0.000000 -0.000000 3.415856 -7.188440 51.650519 6.299108 -4.358717 110.664904 0.248931 -1.503702 18.798339 -0.000000 -0.000000 -0.000000 -3.337714 -2.609987 57.026151 5.442607 -4.590615 99.720024 1.688312 -3.589796 50.364633 -0.000000 -0.000000 -0.000002 -3.984878 -3.310535 64.601323 4.057628 -4.618518 82.595490 2.318280 -4.028378 59.826091 -0.000000 0.000000 0.000000 -20.243480 43.379860 28.333179 24.540062 -0.344201 -0.990046 1.073717 1.957231 -4.095553 -0.212239 0.000017 -0.004870 -0.000000 -0.000001 -0.000000 8.037196 5.373826 -7.995933 28.754813 0.130083 1.461792 -21.799906 -18.053134 5.046347 -0.105979 -0.000027 -0.000003 -0.000000 0.000000 -0.000000 
1.501233 90.122459 -1.753584 -17.040419 -39.196769 -8.656217 7.978760 0.098916 -0.919519 16.407988 -0.141646 -0.729560 16.408157 -0.201189 -0.706690 0.364982 7.469515 0.833150 -6.967225 21.530831 11.906209 -0.000000 0.000000 -0.000001 -37.569537 -4.827661 1.548431 -41.579053 -6.902397 -61.764171 -0.000035 -64.880582 -0.000031 -113.387042 8.577777 33.292582 4.707136 9.563467 3.113514 19.473207 -1.474904 7.636932 -4.536182 -9.613110 1.492960 0.000001 0.000002 -0.000001 -0.086926 4.119296 -37.005022 3.014206 5.119439 -60.955409 0.513415 2.400249 -24.144280 -0.000000 -0.000000 0.000001 0.630345 5.685443 -52.586665 3.387936 5.308983 -65.065994 0.281644 1.796316 -17.820641 0.000000 -0.000002 0.000002 0.210046 5.899470 -61.152255 4.055855 5.569771 -72.103445 0.582269 2.548138 -25.739010 0.000001 0.000003 -0.000000 -6.262461 4.670828 -72.564995 3.297508 5.266180 -64.084591 0.175346 1.424015 -14.038892 0.000001 -0.000001 -0.000001 -41.185429 -8.607507 -9.955630 -46.725546 58.270441 100.943304 0.000128 98.458174 -0.000167 -52.398845 -17.222406 -29.260073 8.372023 -4.823360 11.014595 21.519355 -18.284606 -18.308773 -0.721283 -49.825277 -32.554331 -0.000000 0.000000 0.000001 -0.910586 1.690190 12.314525 0.752530 -2.540263 32.997904 0.617377 -2.319083 29.810682 0.000000 0.000000 -0.000001 3.415878 -7.188452 51.650618 6.298530 -4.358956 110.657309 0.248895 -1.503586 18.796986 -0.000001 0.000000 0.000000 -3.337732 -2.609906 57.025519 5.441464 -4.590802 99.705524 1.688574 -3.590013 50.368752 -0.000000 0.000001 -0.000001 -3.984935 -3.310375 64.600264 4.058050 -4.618567 82.600667 2.317461 -4.027900 59.814439 0.000000 -0.000000 0.000001 -20.248244 43.382503 28.338778 24.562938 -0.323788 -0.997343 1.033003 1.960199 -4.101616 -0.212239 0.000018 -0.004870 0.000000 -0.000000 -0.000000 8.019842 5.371908 -7.998127 28.743106 0.155476 1.440887 -21.793199 -18.055385 5.065999 -0.073941 -0.000012 0.000002 -0.000000 -0.000001 -0.000000 
1.510230 90.122955 -1.726534 -17.018685 -39.220415 -8.654327 7.982020 0.106674 -0.931507 16.408560 -0.141664 -0.733287 16.408730 -0.201223 -0.710303 0.365070 7.472874 0.832799 -6.972955 21.551931 11.896418 -0.000000 0.000001 0.000001 -37.569302 -4.828825 1.552845 -41.595504 -6.915450 -61.743783 0.000041 -64.875370 0.000012 -113.400087 8.571537 33.302104 4.707221 9.563785 3.113566 19.473206 -1.474899 7.636934 -4.536183 -9.613115 1.492961 0.000001 -0.000001 -0.000000 -0.124536 4.064233 -36.928459 2.992700 5.107484 -60.714023 0.513422 2.400238 -24.144290 0.000001 -0.000001 0.000000 0.563475 5.632466 -52.546660 3.387919 5.308984 -65.065939 0.281653 1.796316 -17.820626 -0.000002 -0.000002 0.000001 0.125366 5.851169 -61.124975 4.055626 5.569707 -72.101102 0.582271 2.548140 -25.739011 -0.000000 -0.000001 -0.000001 -6.352692 4.633616 -72.523468 3.298108 5.266478 -64.091360 0.175344 1.424011 -14.038893 -0.000000 -0.000001 -0.000000 -41.183138 -8.610040 -9.946233 -46.764830 58.271766 100.949376 -0.000063 98.447430 0.000044 -52.421763 -17.217085 -29.261487 8.373694 -4.849459 11.016316 21.546655 -18.257335 -18.327803 -0.709659 -49.825810 -32.543714 0.000001 0.000003 0.000001 -0.914020 1.688595 12.356476 0.751268 -2.538316 32.969477 0.617116 -2.318648 29.804285 0.000001 0.000000 -0.000001 3.415909 -7.188464 51.650840 6.298013 -4.359107 110.650765 0.248851 -1.503528 18.796235 -0.000000 -0.000000 0.000000 -3.337736 -2.609625 57.023614 5.440726 -4.590926 99.696358 1.688786 -3.590186 50.372235 0.000000 0.000001 -0.000000 -3.984935 -3.310260 64.599656 4.058463 -4.618605 82.605783 2.316749 -4.027488 59.804549 -0.000000 -0.000001 0.000002 -20.252469 43.384839 28.343038 24.582167 -0.306921 -1.003737 0.998956 1.962225 -4.106334 -0.212239 0.000016 -0.004870 -0.000000 -0.000000 -0.000000 8.005394 5.369577 -8.000459 28.732707 0.176884 1.423276 -21.787373 -18.057448 5.082915 -0.050205 0.000006 -0.000001 -0.000000 -0.000000 0.000000 
1.518840 90.123184 -1.700558 -16.996979 -39.241957 -8.650527 7.985409 0.115379 -0.942491 16.408766 -0.141656 -0.737726 16.408944 -0.201228 -0.714436 0.365170 7.476280 0.832465 -6.982364 21.571103 11.888756 -0.000001 0.000000 -0.000000 -37.569206 -4.828795 1.553924 -41.609608 -6.944313 -61.717070 0.000038 -64.867597 0.000042 -113.422832 8.559897 33.309832 4.707189 9.563489 3.113481 19.473201 -1.474902 7.636933 -4.536183 -9.613115 1.492959 0.000001 -0.000000 0.000000 -0.160396 4.011432 -36.855066 2.972173 5.095961 -60.483299 0.513427 2.400259 -24.144268 0.000001 -0.000000 -0.000001 0.499598 5.581725 -52.508671 3.387930 5.308988 -65.065919 0.281650 1.796304 -17.820659 -0.000002 -0.000002 0.000003 0.044418 5.804865 -61.099123 4.055392 5.569640 -72.098657 0.582268 2.548141 -25.739011 0.000000 -0.000000 0.000002 -6.438961 4.597877 -72.483709 3.298718 5.266775 -64.097965 0.175345 1.424014 -14.038892 -0.000004 0.000002 -0.000002 -41.181885 -8.609084 -9.942427 -46.795460 58.264901 100.954683 -0.000143 98.440416 0.000161 -52.440826 -17.213624 -29.263020 8.375141 -4.872216 11.017288 21.575176 -18.228825 -18.347739 -0.701080 -49.826397 -32.534892 0.000000 0.000001 0.000002 -0.916649 1.686344 12.391158 0.750015 -2.536384 32.941217 0.616636 -2.317815 29.792568 -0.000000 -0.000000 -0.000001 3.415964 -7.188480 51.651089 6.297552 -4.359306 110.644283 0.248871 -1.503524 18.795998 -0.000001 -0.000000 -0.000000 -3.337760 -2.609042 57.019403 5.440523 -4.590963 99.693789 1.689006 -3.590348 50.375579 -0.000000 0.000001 0.000000 -3.984948 -3.310245 64.599513 4.058972 -4.618676 82.612060 2.316093 -4.027100 59.795035 -0.000001 -0.000000 0.000002 -20.256994 43.388387 28.345965 24.600706 -0.291538 -1.009975 0.966533 1.963689 -4.110534 -0.212239 0.000016 -0.004870 -0.000000 -0.000000 -0.000000 7.991024 5.367300 -8.004045 28.724159 0.196694 1.406564 -21.782508 -18.059575 5.099523 -0.034505 -0.000014 0.000000 -0.000000 0.000003 0.000000 
